<?xml version="1.0" standalone="no"?>
<!DOCTYPE svg PUBLIC "-//W3C//DTD SVG 20010904//EN"
 "http://www.w3.org/TR/2001/REC-SVG-20010904/DTD/svg10.dtd">
<svg version="1.0" xmlns="http://www.w3.org/2000/svg"
 width="300.000000pt" height="300.000000pt" viewBox="0 0 300.000000 300.000000"
 preserveAspectRatio="xMidYMid meet">
<metadata>
Created by potrace 1.11, written by Peter Selinger 2001-2013
</metadata>
<g transform="translate(0.000000,300.000000) scale(0.100000,-0.100000)"
fill="#000000" stroke="none">
<path d="M1280 2416 c-55 -11 -120 -48 -120 -67 0 -6 11 -29 24 -52 43 -75 40
-86 -31 -113 -34 -13 -73 -25 -86 -28 -48 -8 -126 -49 -142 -72 -13 -20 -16
-54 -15 -188 1 -91 4 -167 7 -169 2 -3 6 -45 8 -94 4 -91 10 -219 20 -403 3
-58 8 -148 10 -200 14 -273 18 -289 81 -319 75 -37 229 -48 369 -26 88 14 80
30 81 -156 2 -180 -2 -219 -21 -219 -15 0 -41 -37 -46 -64 -3 -13 -25 -27 -68
-42 -95 -34 -124 -68 -136 -158 l-7 -46 416 0 c244 0 417 4 421 9 8 15 -33
116 -59 144 -33 35 -72 53 -146 68 -76 15 -90 23 -90 54 0 13 -5 25 -10 27 -7
2 -11 61 -13 151 -1 81 -4 147 -8 147 -3 0 -6 17 -8 38 -1 20 -4 51 -5 68 -1
17 -5 35 -9 40 -3 6 18 18 51 28 31 10 70 25 85 33 27 14 27 15 22 86 -3 40
-8 193 -10 340 -2 148 -6 271 -9 274 -3 3 -1 14 4 24 7 12 6 20 -1 25 -8 4 -7
9 2 15 9 5 10 9 3 9 -12 0 -13 29 -19 376 -1 77 -5 149 -9 161 -7 23 -91 64
-141 69 -16 1 -33 3 -36 3 -3 1 -16 10 -29 21 -17 14 -37 20 -75 20 l-51 0 1
58 c0 62 -16 106 -45 122 -29 16 -101 18 -160 6z"/>
</g>
</svg>
